<?xml version="1.0" encoding="UTF-8" standalone="no"?>
<!-- Generator: Adobe Illustrator 16.0.0, SVG Export Plug-In . SVG Version: 6.00 Build 0)  -->

<svg
   xmlns:dc="http://purl.org/dc/elements/1.1/"
   xmlns:cc="http://creativecommons.org/ns#"
   xmlns:rdf="http://www.w3.org/1999/02/22-rdf-syntax-ns#"
   xmlns:svg="http://www.w3.org/2000/svg"
   xmlns="http://www.w3.org/2000/svg"
   xmlns:sodipodi="http://sodipodi.sourceforge.net/DTD/sodipodi-0.dtd"
   xmlns:inkscape="http://www.inkscape.org/namespaces/inkscape"
   version="1.1"
   id="Layer_1"
   x="0px"
   y="0px"
   width="162.685px"
   height="21.637px"
   viewBox="0 0 162.685 21.637"
   enable-background="new 0 0 162.685 21.637"
   xml:space="preserve"
   sodipodi:docname="sig-hcsc-en.svg"
   inkscape:version="0.92.4 (f8dce91, 2019-08-02)"><metadata
   id="metadata71"><rdf:RDF><cc:Work
       rdf:about=""><dc:format>image/svg+xml</dc:format><dc:type
         rdf:resource="http://purl.org/dc/dcmitype/StillImage" /><dc:title></dc:title></cc:Work></rdf:RDF></metadata><defs
   id="defs69" /><sodipodi:namedview
   pagecolor="#ffffff"
   bordercolor="#666666"
   borderopacity="1"
   objecttolerance="10"
   gridtolerance="10"
   guidetolerance="10"
   inkscape:pageopacity="0"
   inkscape:pageshadow="2"
   inkscape:window-width="1920"
   inkscape:window-height="1025"
   id="namedview67"
   showgrid="false"
   inkscape:zoom="2.348096"
   inkscape:cx="24.913802"
   inkscape:cy="10.8185"
   inkscape:window-x="0"
   inkscape:window-y="445"
   inkscape:window-maximized="1"
   inkscape:current-layer="Layer_1" />
<g
   id="g14">
	<g
   id="g4">
		<rect
   fill="#E73137"
   width="10.223"
   height="20.818"
   id="rect2" />
	</g>
	<g
   id="g8">
		<rect
   x="32.899"
   fill="#E73137"
   width="10.223"
   height="20.818"
   id="rect6" />
	</g>
	<g
   id="g12">
		<path
   fill="#E73137"
   d="M20.143,4.328l1.461-2.973l1.45,2.863c0.181,0.303,0.326,0.278,0.616,0.133l1.245-0.616l-0.81,3.999    c-0.169,0.785,0.278,1.016,0.761,0.482l1.776-1.896l0.47,1.075c0.158,0.326,0.399,0.277,0.713,0.217l1.836-0.387l-0.616,2.32    l-0.013,0.048c-0.072,0.303-0.217,0.556,0.122,0.701l0.652,0.326l-3.782,3.202c-0.386,0.398-0.253,0.52-0.108,0.967l0.35,1.074    l-3.527-0.641c-0.435-0.109-0.737-0.109-0.749,0.242l0.145,4.047h-1.062l0.146-4.035c0-0.398-0.303-0.387-1.016-0.241    l-3.262,0.628l0.423-1.074c0.144-0.412,0.181-0.689-0.146-0.967l-3.866-3.154l0.713-0.435c0.206-0.157,0.217-0.326,0.109-0.677    l-0.725-2.355l1.861,0.398c0.519,0.121,0.664,0,0.796-0.29l0.52-1.063l1.836,2.079c0.327,0.386,0.786,0.132,0.641-0.424    l-0.882-4.337l1.365,0.785c0.217,0.133,0.447,0.17,0.58-0.084"
   id="path10" />
	</g>
</g>
<g
   id="g38"
   transform="translate(60)">
	<path
   d="m 60.812,7.177 c 0.026,0.488 0.137,0.885 0.333,1.189 0.373,0.57 1.029,0.855 1.97,0.855 0.421,0 0.805,-0.062 1.151,-0.188 0.67,-0.242 1.005,-0.676 1.005,-1.301 0,-0.469 -0.142,-0.803 -0.426,-1.002 C 64.557,6.535 64.107,6.365 63.494,6.22 L 62.365,5.956 C 61.627,5.784 61.105,5.595 60.799,5.388 60.269,5.029 60.004,4.492 60.004,3.777 c 0,-0.773 0.26,-1.408 0.781,-1.904 0.521,-0.496 1.258,-0.744 2.212,-0.744 0.878,0 1.624,0.218 2.238,0.653 0.614,0.435 0.921,1.132 0.921,2.089 H 65.06 C 65.004,3.41 64.884,3.057 64.701,2.81 64.36,2.361 63.782,2.136 62.965,2.136 c -0.659,0 -1.133,0.145 -1.421,0.434 -0.29,0.29 -0.434,0.626 -0.434,1.009 0,0.422 0.17,0.73 0.511,0.926 0.224,0.125 0.729,0.281 1.516,0.469 l 1.169,0.275 c 0.564,0.133 0.999,0.314 1.306,0.545 0.53,0.402 0.795,0.986 0.795,1.752 0,0.953 -0.338,1.635 -1.014,2.045 -0.676,0.41 -1.462,0.615 -2.357,0.615 -1.044,0 -1.861,-0.273 -2.451,-0.82 -0.591,-0.543 -0.88,-1.279 -0.869,-2.209 z"
   id="path16"
   inkscape:connector-curvature="0" />
	<path
   d="m 71.588,6.156 c 0.242,-0.031 0.404,-0.132 0.486,-0.304 0.047,-0.094 0.07,-0.229 0.07,-0.406 0,-0.361 -0.128,-0.623 -0.383,-0.785 -0.255,-0.163 -0.621,-0.244 -1.097,-0.244 -0.55,0 -0.939,0.149 -1.169,0.447 C 69.366,5.029 69.283,5.275 69.244,5.6 H 68.26 c 0.02,-0.775 0.27,-1.315 0.752,-1.619 0.482,-0.304 1.041,-0.456 1.677,-0.456 0.737,0 1.336,0.141 1.797,0.422 0.457,0.281 0.685,0.719 0.685,1.312 v 3.616 c 0,0.109 0.022,0.197 0.067,0.263 0.045,0.066 0.14,0.1 0.284,0.1 0.047,0 0.1,-0.003 0.158,-0.009 0.058,-0.006 0.121,-0.015 0.188,-0.026 v 0.779 c -0.164,0.047 -0.289,0.076 -0.375,0.088 -0.086,0.012 -0.203,0.018 -0.352,0.018 -0.363,0 -0.627,-0.129 -0.791,-0.387 -0.086,-0.137 -0.146,-0.33 -0.182,-0.58 -0.215,0.281 -0.523,0.525 -0.926,0.732 -0.403,0.207 -0.846,0.311 -1.33,0.311 -0.582,0 -1.058,-0.177 -1.427,-0.53 C 68.116,9.281 67.932,8.84 67.932,8.31 c 0,-0.582 0.182,-1.032 0.545,-1.352 0.363,-0.32 0.84,-0.517 1.43,-0.591 z m -2.22,2.849 c 0.223,0.176 0.486,0.263 0.791,0.263 0.371,0 0.73,-0.086 1.078,-0.257 0.586,-0.285 0.879,-0.751 0.879,-1.398 V 6.765 C 71.987,6.848 71.822,6.916 71.619,6.971 71.416,7.026 71.218,7.065 71.022,7.088 L 70.385,7.17 c -0.382,0.051 -0.669,0.13 -0.862,0.24 -0.326,0.183 -0.489,0.476 -0.489,0.877 0,0.303 0.111,0.543 0.334,0.718 z"
   id="path18"
   inkscape:connector-curvature="0" />
	<path
   d="m 75.211,3.679 h 1.002 V 4.57 c 0.297,-0.367 0.611,-0.631 0.943,-0.791 0.332,-0.16 0.701,-0.24 1.107,-0.24 0.891,0 1.492,0.311 1.805,0.932 0.172,0.34 0.258,0.826 0.258,1.459 V 9.955 H 79.254 V 5.999 c 0,-0.383 -0.057,-0.691 -0.17,-0.926 -0.188,-0.391 -0.527,-0.586 -1.02,-0.586 -0.25,0 -0.455,0.025 -0.615,0.076 C 77.16,4.649 76.906,4.821 76.687,5.079 76.511,5.286 76.397,5.5 76.344,5.721 76.291,5.942 76.265,6.257 76.265,6.667 V 9.954 H 75.21 V 3.679 Z"
   id="path20"
   inkscape:connector-curvature="0" />
	<path
   d="m 82.408,1.927 h 1.066 v 1.752 h 1.002 V 4.54 h -1.002 v 4.096 c 0,0.219 0.074,0.365 0.223,0.439 0.082,0.043 0.219,0.064 0.41,0.064 0.051,0 0.105,-10e-4 0.164,-0.004 0.059,-0.003 0.127,-0.009 0.205,-0.02 v 0.838 c -0.121,0.035 -0.247,0.061 -0.378,0.076 -0.131,0.015 -0.272,0.023 -0.425,0.023 -0.492,0 -0.826,-0.126 -1.002,-0.378 C 82.495,9.422 82.407,9.095 82.407,8.693 V 4.54 h -0.85 V 3.679 h 0.85 V 1.927 Z"
   id="path22"
   inkscape:connector-curvature="0" />
	<path
   d="m 89.719,3.852 c 0.416,0.209 0.732,0.479 0.949,0.812 0.21,0.316 0.35,0.686 0.419,1.107 0.062,0.289 0.093,0.75 0.093,1.383 h -4.564 c 0.02,0.639 0.168,1.151 0.448,1.537 0.279,0.386 0.711,0.579 1.296,0.579 0.546,0 0.982,-0.183 1.308,-0.547 0.182,-0.212 0.311,-0.457 0.387,-0.736 h 1.037 c -0.027,0.23 -0.118,0.487 -0.272,0.771 -0.154,0.284 -0.327,0.515 -0.517,0.694 -0.318,0.312 -0.711,0.523 -1.18,0.633 -0.252,0.062 -0.537,0.094 -0.855,0.094 -0.776,0 -1.434,-0.284 -1.974,-0.853 -0.54,-0.568 -0.81,-1.364 -0.81,-2.388 0,-1.008 0.271,-1.826 0.815,-2.455 0.543,-0.629 1.254,-0.943 2.131,-0.943 0.445,-0.002 0.874,0.103 1.289,0.312 z m 0.378,2.463 C 90.054,5.858 89.955,5.493 89.8,5.22 89.513,4.712 89.035,4.458 88.365,4.458 c -0.48,0 -0.883,0.175 -1.208,0.524 -0.325,0.349 -0.498,0.794 -0.517,1.333 z M 89.675,1.153 88.11,2.847 h -0.809 l 1.072,-1.693 h 1.302 z"
   id="path24"
   inkscape:connector-curvature="0" />
	<path
   d="m 66.138,12.974 c 0.594,0.574 0.925,1.227 0.99,1.957 h -1.137 c -0.126,-0.555 -0.379,-0.994 -0.757,-1.318 -0.378,-0.324 -0.908,-0.486 -1.591,-0.486 -0.833,0 -1.505,0.298 -2.017,0.895 -0.512,0.596 -0.768,1.51 -0.768,2.741 0,1.009 0.231,1.827 0.693,2.454 0.462,0.628 1.152,0.941 2.069,0.941 0.844,0 1.487,-0.33 1.928,-0.99 0.234,-0.348 0.409,-0.805 0.524,-1.371 h 1.137 c -0.101,0.906 -0.433,1.666 -0.996,2.279 -0.676,0.738 -1.587,1.107 -2.734,1.107 -0.989,0 -1.819,-0.303 -2.491,-0.909 -0.884,-0.801 -1.326,-2.039 -1.326,-3.711 0,-1.271 0.332,-2.312 0.996,-3.125 0.718,-0.883 1.708,-1.325 2.971,-1.325 1.078,-10e-4 1.914,0.286 2.509,0.861 z"
   id="path26"
   inkscape:connector-curvature="0" />
	<path
   d="m 72.25,17.156 c 0.242,-0.031 0.404,-0.132 0.486,-0.304 0.047,-0.094 0.07,-0.229 0.07,-0.406 0,-0.361 -0.128,-0.623 -0.383,-0.785 -0.255,-0.163 -0.621,-0.244 -1.097,-0.244 -0.55,0 -0.939,0.149 -1.169,0.447 -0.129,0.165 -0.212,0.411 -0.251,0.736 h -0.984 c 0.02,-0.775 0.27,-1.315 0.752,-1.619 0.482,-0.304 1.041,-0.456 1.677,-0.456 0.737,0 1.336,0.141 1.797,0.422 0.457,0.281 0.685,0.719 0.685,1.312 v 3.616 c 0,0.109 0.022,0.197 0.067,0.263 0.045,0.066 0.14,0.1 0.284,0.1 0.047,0 0.1,-0.003 0.158,-0.009 0.058,-0.006 0.121,-0.015 0.188,-0.026 v 0.779 c -0.164,0.047 -0.289,0.076 -0.375,0.088 -0.086,0.012 -0.203,0.018 -0.352,0.018 -0.363,0 -0.627,-0.129 -0.791,-0.387 -0.086,-0.137 -0.146,-0.33 -0.182,-0.58 -0.215,0.281 -0.523,0.525 -0.926,0.732 -0.403,0.207 -0.846,0.311 -1.33,0.311 -0.582,0 -1.058,-0.177 -1.427,-0.53 -0.369,-0.353 -0.554,-0.795 -0.554,-1.325 0,-0.582 0.182,-1.032 0.545,-1.352 0.363,-0.32 0.84,-0.517 1.43,-0.591 z m -2.22,2.849 c 0.223,0.176 0.486,0.263 0.791,0.263 0.371,0 0.73,-0.086 1.078,-0.257 0.586,-0.285 0.879,-0.751 0.879,-1.398 v -0.848 c -0.129,0.083 -0.294,0.151 -0.497,0.206 -0.203,0.055 -0.401,0.094 -0.597,0.117 l -0.637,0.082 c -0.382,0.051 -0.669,0.13 -0.862,0.24 -0.326,0.183 -0.489,0.476 -0.489,0.877 0,0.303 0.111,0.543 0.334,0.718 z"
   id="path28"
   inkscape:connector-curvature="0" />
	<path
   d="m 75.873,14.679 h 1.002 v 0.891 c 0.297,-0.367 0.611,-0.631 0.943,-0.791 0.332,-0.16 0.701,-0.24 1.107,-0.24 0.891,0 1.492,0.311 1.805,0.932 0.172,0.34 0.258,0.826 0.258,1.459 v 4.025 H 79.916 V 17 c 0,-0.383 -0.057,-0.691 -0.17,-0.926 -0.188,-0.391 -0.527,-0.586 -1.02,-0.586 -0.25,0 -0.455,0.025 -0.615,0.076 -0.289,0.086 -0.543,0.258 -0.762,0.516 -0.176,0.207 -0.29,0.421 -0.343,0.642 -0.053,0.221 -0.079,0.536 -0.079,0.946 v 3.287 h -1.055 v -6.276 z"
   id="path30"
   inkscape:connector-curvature="0" />
	<path
   d="m 86.222,17.156 c 0.242,-0.031 0.404,-0.132 0.486,-0.304 0.047,-0.094 0.07,-0.229 0.07,-0.406 0,-0.361 -0.128,-0.623 -0.383,-0.785 -0.255,-0.163 -0.621,-0.244 -1.097,-0.244 -0.55,0 -0.939,0.149 -1.169,0.447 C 84,16.029 83.917,16.275 83.878,16.6 h -0.984 c 0.02,-0.775 0.27,-1.315 0.752,-1.619 0.482,-0.304 1.041,-0.456 1.677,-0.456 0.737,0 1.336,0.141 1.797,0.422 0.457,0.281 0.685,0.719 0.685,1.312 v 3.616 c 0,0.109 0.022,0.197 0.067,0.263 0.045,0.066 0.14,0.1 0.284,0.1 0.047,0 0.1,-0.003 0.158,-0.009 0.058,-0.006 0.121,-0.015 0.188,-0.026 v 0.779 c -0.164,0.047 -0.289,0.076 -0.375,0.088 -0.086,0.012 -0.203,0.018 -0.352,0.018 -0.363,0 -0.627,-0.129 -0.791,-0.387 -0.086,-0.137 -0.146,-0.33 -0.182,-0.58 -0.215,0.281 -0.523,0.525 -0.926,0.732 -0.403,0.207 -0.846,0.311 -1.33,0.311 -0.582,0 -1.058,-0.177 -1.427,-0.53 -0.369,-0.353 -0.554,-0.795 -0.554,-1.325 0,-0.582 0.182,-1.032 0.545,-1.352 0.363,-0.32 0.84,-0.517 1.43,-0.591 z m -2.221,2.849 c 0.223,0.176 0.486,0.263 0.791,0.263 0.371,0 0.73,-0.086 1.078,-0.257 0.586,-0.285 0.879,-0.751 0.879,-1.398 v -0.848 c -0.129,0.083 -0.294,0.151 -0.497,0.206 -0.203,0.055 -0.401,0.094 -0.597,0.117 l -0.637,0.082 c -0.382,0.051 -0.669,0.13 -0.862,0.24 -0.326,0.183 -0.489,0.476 -0.489,0.877 0,0.303 0.112,0.543 0.334,0.718 z"
   id="path32"
   inkscape:connector-curvature="0" />
	<path
   d="m 93.292,14.872 c 0.187,0.117 0.399,0.322 0.636,0.615 v -3.17 h 1.014 v 8.637 h -0.949 v -0.873 c -0.245,0.387 -0.535,0.666 -0.87,0.838 -0.335,0.172 -0.718,0.258 -1.15,0.258 -0.697,0 -1.3,-0.294 -1.81,-0.882 -0.51,-0.588 -0.765,-1.37 -0.765,-2.347 0,-0.914 0.232,-1.706 0.697,-2.376 0.465,-0.67 1.129,-1.005 1.994,-1.005 0.48,0 0.881,0.102 1.203,0.305 z m -2.354,4.705 c 0.284,0.453 0.738,0.68 1.364,0.68 0.486,0 0.885,-0.21 1.198,-0.63 0.313,-0.42 0.469,-1.022 0.469,-1.808 0,-0.793 -0.161,-1.38 -0.484,-1.761 -0.323,-0.381 -0.721,-0.571 -1.195,-0.571 -0.528,0 -0.957,0.203 -1.285,0.609 -0.329,0.406 -0.493,1.004 -0.493,1.793 0.001,0.673 0.142,1.235 0.426,1.688 z"
   id="path34"
   inkscape:connector-curvature="0" />
	<path
   d="m 100.194,17.156 c 0.242,-0.031 0.404,-0.132 0.486,-0.304 0.047,-0.094 0.07,-0.229 0.07,-0.406 0,-0.361 -0.128,-0.623 -0.383,-0.785 -0.255,-0.163 -0.621,-0.244 -1.097,-0.244 -0.55,0 -0.939,0.149 -1.169,0.447 -0.129,0.165 -0.212,0.411 -0.251,0.736 h -0.984 c 0.02,-0.775 0.27,-1.315 0.752,-1.619 0.482,-0.304 1.041,-0.456 1.677,-0.456 0.737,0 1.336,0.141 1.797,0.422 0.457,0.281 0.685,0.719 0.685,1.312 v 3.616 c 0,0.109 0.022,0.197 0.067,0.263 0.045,0.066 0.14,0.1 0.284,0.1 0.047,0 0.1,-0.003 0.158,-0.009 0.058,-0.006 0.121,-0.015 0.188,-0.026 v 0.779 c -0.164,0.047 -0.289,0.076 -0.375,0.088 -0.086,0.012 -0.203,0.018 -0.352,0.018 -0.363,0 -0.627,-0.129 -0.791,-0.387 -0.086,-0.137 -0.146,-0.33 -0.182,-0.58 -0.215,0.281 -0.523,0.525 -0.926,0.732 -0.403,0.207 -0.846,0.311 -1.33,0.311 -0.582,0 -1.058,-0.177 -1.427,-0.53 -0.369,-0.353 -0.554,-0.795 -0.554,-1.325 0,-0.582 0.182,-1.032 0.545,-1.352 0.363,-0.32 0.84,-0.517 1.43,-0.591 z m -2.221,2.849 c 0.223,0.176 0.486,0.263 0.791,0.263 0.371,0 0.73,-0.086 1.078,-0.257 0.586,-0.285 0.879,-0.751 0.879,-1.398 v -0.848 c -0.129,0.083 -0.294,0.151 -0.497,0.206 -0.203,0.055 -0.401,0.094 -0.597,0.117 L 98.99,18.17 c -0.382,0.051 -0.669,0.13 -0.862,0.24 -0.326,0.183 -0.489,0.476 -0.489,0.877 0,0.303 0.111,0.543 0.334,0.718 z"
   id="path36"
   inkscape:connector-curvature="0" />
</g>
<g
   id="g64"
   transform="translate(-60)">
	<path
   d="m 120.291,1.801 h 1.178 v 3.557 h 4.424 V 1.801 h 1.178 v 8.607 h -1.178 V 6.383 h -4.424 v 4.025 h -1.178 z"
   id="path40"
   inkscape:connector-curvature="0" />
	<path
   d="m 132.975,4.306 c 0.416,0.209 0.732,0.479 0.949,0.812 0.21,0.316 0.35,0.686 0.419,1.107 0.062,0.289 0.093,0.75 0.093,1.383 h -4.564 c 0.02,0.639 0.168,1.151 0.448,1.537 0.279,0.386 0.711,0.579 1.296,0.579 0.546,0 0.982,-0.183 1.308,-0.547 0.182,-0.212 0.311,-0.457 0.387,-0.736 h 1.037 c -0.027,0.23 -0.118,0.487 -0.272,0.771 -0.154,0.284 -0.327,0.515 -0.517,0.694 -0.318,0.312 -0.711,0.523 -1.18,0.633 -0.252,0.062 -0.537,0.094 -0.855,0.094 -0.776,0 -1.434,-0.284 -1.974,-0.853 -0.54,-0.568 -0.81,-1.364 -0.81,-2.388 0,-1.008 0.271,-1.826 0.815,-2.455 0.543,-0.629 1.254,-0.943 2.131,-0.943 0.445,-0.001 0.874,0.103 1.289,0.312 z m 0.378,2.464 c -0.042,-0.457 -0.142,-0.822 -0.296,-1.096 -0.287,-0.508 -0.765,-0.762 -1.435,-0.762 -0.48,0 -0.883,0.175 -1.208,0.524 -0.325,0.349 -0.498,0.794 -0.517,1.333 h 3.456 z"
   id="path42"
   inkscape:connector-curvature="0" />
	<path
   d="m 139.448,6.611 c 0.242,-0.031 0.404,-0.132 0.486,-0.304 0.047,-0.094 0.07,-0.229 0.07,-0.406 0,-0.361 -0.128,-0.623 -0.383,-0.785 -0.255,-0.163 -0.621,-0.244 -1.097,-0.244 -0.55,0 -0.939,0.149 -1.169,0.447 -0.129,0.165 -0.212,0.411 -0.251,0.736 h -0.984 c 0.02,-0.775 0.27,-1.315 0.752,-1.619 0.482,-0.304 1.041,-0.456 1.677,-0.456 0.737,0 1.336,0.141 1.797,0.422 0.457,0.281 0.685,0.719 0.685,1.312 V 9.33 c 0,0.109 0.022,0.197 0.067,0.263 0.045,0.066 0.14,0.1 0.284,0.1 0.047,0 0.1,-0.003 0.158,-0.009 0.058,-0.006 0.121,-0.015 0.188,-0.026 v 0.779 c -0.164,0.047 -0.289,0.076 -0.375,0.088 -0.086,0.012 -0.203,0.018 -0.352,0.018 -0.363,0 -0.627,-0.129 -0.791,-0.387 -0.086,-0.137 -0.146,-0.33 -0.182,-0.58 -0.215,0.281 -0.523,0.525 -0.926,0.732 -0.403,0.207 -0.846,0.311 -1.33,0.311 -0.582,0 -1.058,-0.177 -1.427,-0.53 -0.369,-0.353 -0.554,-0.795 -0.554,-1.325 0,-0.582 0.182,-1.032 0.545,-1.352 0.363,-0.32 0.84,-0.517 1.43,-0.591 z m -2.22,2.849 c 0.223,0.176 0.486,0.263 0.791,0.263 0.371,0 0.73,-0.086 1.078,-0.257 0.586,-0.285 0.879,-0.751 0.879,-1.398 V 7.219 c -0.129,0.083 -0.294,0.151 -0.497,0.206 -0.203,0.055 -0.401,0.094 -0.597,0.117 l -0.637,0.082 c -0.382,0.051 -0.669,0.13 -0.862,0.24 -0.326,0.183 -0.489,0.476 -0.489,0.877 0,0.304 0.111,0.544 0.334,0.719 z"
   id="path44"
   inkscape:connector-curvature="0" />
	<path
   d="m 143.1,1.801 h 1.055 v 8.607 H 143.1 Z"
   id="path46"
   inkscape:connector-curvature="0" />
	<path
   d="m 146.26,2.381 h 1.066 v 1.752 h 1.002 v 0.861 h -1.002 V 9.09 c 0,0.219 0.074,0.365 0.223,0.439 0.082,0.043 0.219,0.064 0.41,0.064 0.051,0 0.105,-10e-4 0.164,-0.004 0.059,-0.003 0.127,-0.009 0.205,-0.02 v 0.838 c -0.121,0.035 -0.247,0.061 -0.378,0.076 -0.131,0.015 -0.272,0.023 -0.425,0.023 -0.492,0 -0.826,-0.126 -1.002,-0.378 -0.176,-0.252 -0.264,-0.579 -0.264,-0.981 V 4.995 h -0.85 V 4.133 h 0.85 V 2.381 Z"
   id="path48"
   inkscape:connector-curvature="0" />
	<path
   d="m 149.695,1.772 h 1.055 v 3.211 c 0.25,-0.316 0.475,-0.539 0.674,-0.668 0.34,-0.223 0.764,-0.334 1.271,-0.334 0.91,0 1.527,0.318 1.852,0.955 0.176,0.348 0.264,0.83 0.264,1.447 v 4.025 h -1.084 V 6.454 c 0,-0.461 -0.059,-0.799 -0.176,-1.014 C 153.36,5.096 153,4.924 152.473,4.924 c -0.438,0 -0.834,0.15 -1.189,0.451 -0.355,0.301 -0.533,0.869 -0.533,1.705 v 3.328 h -1.055 V 1.772 Z"
   id="path50"
   inkscape:connector-curvature="0" />
	<path
   d="m 126.35,13.428 c 0.594,0.574 0.925,1.227 0.99,1.957 h -1.137 c -0.126,-0.555 -0.379,-0.994 -0.757,-1.318 -0.378,-0.324 -0.908,-0.486 -1.591,-0.486 -0.833,0 -1.505,0.298 -2.017,0.895 -0.512,0.596 -0.768,1.51 -0.768,2.741 0,1.009 0.231,1.827 0.693,2.454 0.462,0.628 1.152,0.941 2.069,0.941 0.844,0 1.487,-0.33 1.928,-0.99 0.234,-0.348 0.409,-0.805 0.524,-1.371 h 1.137 c -0.101,0.906 -0.433,1.666 -0.996,2.279 -0.676,0.738 -1.587,1.107 -2.734,1.107 -0.989,0 -1.819,-0.303 -2.491,-0.909 -0.884,-0.801 -1.326,-2.039 -1.326,-3.711 0,-1.271 0.332,-2.312 0.996,-3.125 0.718,-0.883 1.708,-1.325 2.971,-1.325 1.078,0 1.914,0.287 2.509,0.861 z"
   id="path52"
   inkscape:connector-curvature="0" />
	<path
   d="m 132.462,17.611 c 0.242,-0.031 0.404,-0.132 0.486,-0.304 0.047,-0.094 0.07,-0.229 0.07,-0.406 0,-0.361 -0.128,-0.623 -0.383,-0.785 -0.255,-0.163 -0.621,-0.244 -1.097,-0.244 -0.55,0 -0.939,0.149 -1.169,0.447 -0.129,0.165 -0.212,0.411 -0.251,0.736 h -0.984 c 0.02,-0.775 0.27,-1.315 0.752,-1.619 0.482,-0.304 1.041,-0.456 1.677,-0.456 0.737,0 1.336,0.141 1.797,0.422 0.457,0.281 0.685,0.719 0.685,1.312 v 3.616 c 0,0.109 0.022,0.197 0.067,0.263 0.045,0.066 0.14,0.1 0.284,0.1 0.047,0 0.1,-0.003 0.158,-0.009 0.058,-0.006 0.121,-0.015 0.188,-0.026 v 0.779 c -0.164,0.047 -0.289,0.076 -0.375,0.088 -0.086,0.012 -0.203,0.018 -0.352,0.018 -0.363,0 -0.627,-0.129 -0.791,-0.387 -0.086,-0.137 -0.146,-0.33 -0.182,-0.58 -0.215,0.281 -0.523,0.525 -0.926,0.732 -0.403,0.207 -0.846,0.311 -1.33,0.311 -0.582,0 -1.058,-0.177 -1.427,-0.53 -0.369,-0.353 -0.554,-0.795 -0.554,-1.325 0,-0.582 0.182,-1.032 0.545,-1.352 0.363,-0.32 0.84,-0.517 1.43,-0.591 z m -2.22,2.849 c 0.223,0.176 0.486,0.263 0.791,0.263 0.371,0 0.73,-0.086 1.078,-0.257 0.586,-0.285 0.879,-0.751 0.879,-1.398 V 18.22 c -0.129,0.083 -0.294,0.151 -0.497,0.206 -0.203,0.055 -0.401,0.094 -0.597,0.117 l -0.637,0.082 c -0.382,0.051 -0.669,0.13 -0.862,0.24 -0.326,0.183 -0.489,0.476 -0.489,0.877 0,0.303 0.111,0.543 0.334,0.718 z"
   id="path54"
   inkscape:connector-curvature="0" />
	<path
   d="m 136.085,15.133 h 1.002 v 0.891 c 0.297,-0.367 0.611,-0.631 0.943,-0.791 0.332,-0.16 0.701,-0.24 1.107,-0.24 0.891,0 1.492,0.311 1.805,0.932 0.172,0.34 0.258,0.826 0.258,1.459 v 4.025 h -1.072 v -3.955 c 0,-0.383 -0.057,-0.691 -0.17,-0.926 -0.188,-0.391 -0.527,-0.586 -1.02,-0.586 -0.25,0 -0.455,0.025 -0.615,0.076 -0.289,0.086 -0.543,0.258 -0.762,0.516 -0.176,0.207 -0.29,0.421 -0.343,0.642 -0.053,0.221 -0.079,0.536 -0.079,0.946 v 3.287 h -1.055 v -6.276 z"
   id="path56"
   inkscape:connector-curvature="0" />
	<path
   d="m 146.434,17.611 c 0.242,-0.031 0.404,-0.132 0.486,-0.304 0.047,-0.094 0.07,-0.229 0.07,-0.406 0,-0.361 -0.128,-0.623 -0.383,-0.785 -0.255,-0.163 -0.621,-0.244 -1.097,-0.244 -0.55,0 -0.939,0.149 -1.169,0.447 -0.129,0.165 -0.212,0.411 -0.251,0.736 h -0.984 c 0.02,-0.775 0.27,-1.315 0.752,-1.619 0.482,-0.304 1.041,-0.456 1.677,-0.456 0.737,0 1.336,0.141 1.797,0.422 0.457,0.281 0.685,0.719 0.685,1.312 v 3.616 c 0,0.109 0.022,0.197 0.067,0.263 0.045,0.066 0.14,0.1 0.284,0.1 0.047,0 0.1,-0.003 0.158,-0.009 0.058,-0.006 0.121,-0.015 0.188,-0.026 v 0.779 c -0.164,0.047 -0.289,0.076 -0.375,0.088 -0.086,0.012 -0.203,0.018 -0.352,0.018 -0.363,0 -0.627,-0.129 -0.791,-0.387 -0.086,-0.137 -0.146,-0.33 -0.182,-0.58 -0.215,0.281 -0.523,0.525 -0.926,0.732 -0.403,0.207 -0.846,0.311 -1.33,0.311 -0.582,0 -1.058,-0.177 -1.427,-0.53 -0.369,-0.353 -0.554,-0.795 -0.554,-1.325 0,-0.582 0.182,-1.032 0.545,-1.352 0.363,-0.32 0.84,-0.517 1.43,-0.591 z m -2.221,2.849 c 0.223,0.176 0.486,0.263 0.791,0.263 0.371,0 0.73,-0.086 1.078,-0.257 0.586,-0.285 0.879,-0.751 0.879,-1.398 V 18.22 c -0.129,0.083 -0.294,0.151 -0.497,0.206 -0.203,0.055 -0.401,0.094 -0.597,0.117 l -0.637,0.082 c -0.382,0.051 -0.669,0.13 -0.862,0.24 -0.326,0.183 -0.489,0.476 -0.489,0.877 0,0.303 0.112,0.543 0.334,0.718 z"
   id="path58"
   inkscape:connector-curvature="0" />
	<path
   d="m 153.504,15.327 c 0.187,0.117 0.399,0.322 0.636,0.615 v -3.17 h 1.014 v 8.637 h -0.949 v -0.873 c -0.245,0.387 -0.535,0.666 -0.87,0.838 -0.335,0.172 -0.718,0.258 -1.15,0.258 -0.697,0 -1.3,-0.294 -1.81,-0.882 -0.51,-0.588 -0.765,-1.37 -0.765,-2.347 0,-0.914 0.232,-1.706 0.697,-2.376 0.465,-0.67 1.129,-1.005 1.994,-1.005 0.48,0 0.881,0.102 1.203,0.305 z m -2.354,4.705 c 0.284,0.453 0.738,0.68 1.364,0.68 0.486,0 0.885,-0.21 1.198,-0.63 0.313,-0.42 0.469,-1.022 0.469,-1.808 0,-0.793 -0.161,-1.38 -0.484,-1.761 -0.323,-0.381 -0.721,-0.571 -1.195,-0.571 -0.528,0 -0.957,0.203 -1.285,0.609 -0.329,0.406 -0.493,1.004 -0.493,1.793 0.001,0.672 0.142,1.235 0.426,1.688 z"
   id="path60"
   inkscape:connector-curvature="0" />
	<path
   d="m 160.406,17.611 c 0.242,-0.031 0.404,-0.132 0.486,-0.304 0.047,-0.094 0.07,-0.229 0.07,-0.406 0,-0.361 -0.128,-0.623 -0.383,-0.785 -0.255,-0.163 -0.621,-0.244 -1.097,-0.244 -0.55,0 -0.939,0.149 -1.169,0.447 -0.129,0.165 -0.212,0.411 -0.251,0.736 h -0.984 c 0.02,-0.775 0.27,-1.315 0.752,-1.619 0.482,-0.304 1.041,-0.456 1.677,-0.456 0.737,0 1.336,0.141 1.797,0.422 0.457,0.281 0.685,0.719 0.685,1.312 v 3.616 c 0,0.109 0.022,0.197 0.067,0.263 0.045,0.066 0.14,0.1 0.284,0.1 0.047,0 0.1,-0.003 0.158,-0.009 0.058,-0.006 0.121,-0.015 0.188,-0.026 v 0.779 c -0.164,0.047 -0.289,0.076 -0.375,0.088 -0.086,0.012 -0.203,0.018 -0.352,0.018 -0.363,0 -0.627,-0.129 -0.791,-0.387 -0.086,-0.137 -0.146,-0.33 -0.182,-0.58 -0.215,0.281 -0.523,0.525 -0.926,0.732 -0.403,0.207 -0.846,0.311 -1.33,0.311 -0.582,0 -1.058,-0.177 -1.427,-0.53 -0.369,-0.353 -0.554,-0.795 -0.554,-1.325 0,-0.582 0.182,-1.032 0.545,-1.352 0.363,-0.32 0.84,-0.517 1.43,-0.591 z m -2.221,2.849 c 0.223,0.176 0.486,0.263 0.791,0.263 0.371,0 0.73,-0.086 1.078,-0.257 0.586,-0.285 0.879,-0.751 0.879,-1.398 V 18.22 c -0.129,0.083 -0.294,0.151 -0.497,0.206 -0.203,0.055 -0.401,0.094 -0.597,0.117 l -0.637,0.082 c -0.382,0.051 -0.669,0.13 -0.862,0.24 -0.326,0.183 -0.489,0.476 -0.489,0.877 0,0.303 0.111,0.543 0.334,0.718 z"
   id="path62"
   inkscape:connector-curvature="0" />
</g>
</svg>